<?xml version="1.0" encoding="UTF-8" standalone="no"?>
<!DOCTYPE svg PUBLIC "-//W3C//DTD SVG 20010904//EN"
              "http://www.w3.org/TR/2001/REC-SVG-20010904/DTD/svg10.dtd">

<svg xmlns="http://www.w3.org/2000/svg"
     width="42.3334mm" height="42.3334mm"
     viewBox="0 0 500 500">
  <path id="c-letter"
        fill="#313851" stroke="none" stroke-width="0"
        d="M 340.00,319.44
           C 352.44,317.84 367.47,319.73 376.53,329.30
             381.60,334.65 385.18,346.07 377.87,351.26
             375.85,352.70 373.41,352.99 371.00,352.97
             361.23,352.85 361.40,344.90 356.66,340.39
             352.16,336.10 346.13,336.38 341.01,339.36
             338.77,340.67 337.35,341.97 335.79,344.04
             334.02,346.39 332.67,349.22 331.75,352.00
             330.41,356.06 330.05,358.77 330.00,363.00
             329.87,373.98 331.10,386.27 342.00,392.08
             345.05,393.71 348.66,394.53 352.00,393.26
             358.89,390.65 360.28,382.77 364.33,379.74
             368.05,376.94 378.94,376.37 381.43,385.00
             382.70,389.40 381.63,394.25 379.15,398.00
             371.99,408.79 359.22,412.13 347.00,412.00
             335.31,411.86 323.14,407.84 315.18,398.99
             301.09,383.30 301.09,347.70 315.18,332.01
             322.04,324.39 330.19,321.27 340.00,319.44 Z" />
  <path id="m-letter"
        fill="#313851" stroke="none" stroke-width="1"
        d="M 234.00,359.00
           C 234.00,359.00 233.00,388.00 233.00,388.00
             233.00,393.09 233.34,401.49 230.84,405.96
             227.06,412.71 216.08,412.58 211.43,406.89
             208.58,403.41 208.96,399.22 209.00,395.00
             209.00,395.00 209.91,385.00 209.91,385.00
             209.91,385.00 212.83,351.00 212.83,351.00
             213.42,344.97 213.82,330.92 215.99,326.02
             220.52,315.76 240.07,314.97 244.86,327.00
             244.86,327.00 251.00,358.00 251.00,358.00
             251.00,358.00 256.64,328.00 256.64,328.00
             261.12,314.73 281.64,315.48 286.11,327.00
             288.09,332.09 288.56,348.69 289.17,355.00
             289.17,355.00 292.91,400.00 292.91,400.00
             291.80,413.46 275.81,413.77 270.85,405.96
             268.33,401.98 269.16,396.52 268.96,392.00
             268.96,392.00 268.02,383.00 268.02,383.00
             268.02,383.00 268.02,366.00 268.02,366.00
             267.98,362.55 267.95,361.36 267.00,358.00
             267.00,358.00 263.00,380.00 263.00,380.00
             262.27,383.65 261.27,389.86 259.56,392.98
             256.59,398.41 248.81,399.95 244.27,395.69
             241.28,392.87 240.44,387.85 239.58,384.00
             239.58,384.00 234.00,359.00 234.00,359.00 Z" />
  <path id="i-letter"
        fill="#313851" stroke="none" stroke-width="1"
        d="M 147.00,338.00
           C 141.51,338.00 131.63,338.74 127.23,335.28
             122.79,331.79 123.03,324.31 128.11,321.45
             131.04,319.80 134.74,320.01 138.00,320.00
             138.00,320.00 181.00,320.00 181.00,320.00
             183.96,320.04 187.32,320.07 189.85,321.85
             194.16,324.88 193.94,332.17 189.85,335.28
             185.42,338.65 176.41,338.00 171.00,338.00
             171.00,338.00 171.00,393.00 171.00,393.00
             175.64,393.00 186.29,392.13 189.85,394.74
             194.04,397.80 194.04,405.20 189.85,408.26
             187.53,409.96 184.74,409.96 182.00,410.00
             182.00,410.00 135.00,410.00 135.00,410.00
             129.78,409.92 125.18,409.13 124.24,403.00
             122.33,390.49 139.44,393.00 147.00,393.00
             147.00,393.00 147.00,338.00 147.00,338.00 Z" />
  <path id="arrow-measure"
        fill="#313851" stroke="none" stroke-width="1"
        d="M 357.00,142.00
           C 356.43,146.11 353.23,149.68 350.86,153.00
             350.86,153.00 338.42,171.00 338.42,171.00
             321.09,195.25 302.68,218.78 282.84,241.00
             275.82,248.86 263.83,264.73 253.00,265.80
             241.31,266.96 231.67,255.40 234.94,244.00
             236.85,237.34 243.10,231.73 248.00,227.04
             271.49,204.57 297.75,184.30 324.00,165.15
             324.00,165.15 357.00,142.00 357.00,142.00 Z" />
  <path id="high-measure"
        fill="#F9415B" stroke="none" stroke-width="1"
        d="M 392.96,120.54
           C 393.79,120.38 393.93,119.77 395.72,120.54
             398.94,122.49 408.83,136.27 411.33,140.00
             425.68,161.40 436.05,184.66 441.20,210.00
             441.20,210.00 444.27,230.00 444.27,230.00
             444.63,233.88 444.63,237.54 440.79,239.83
             438.44,241.22 434.68,241.00 432.00,241.00
             432.00,241.00 393.00,241.00 393.00,241.00
             389.94,241.00 385.91,241.32 383.42,239.26
             380.28,236.68 380.19,231.69 379.57,228.00
             378.36,220.84 376.34,213.86 374.00,207.00
             371.35,199.24 368.66,194.05 364.58,187.00
             362.90,184.11 358.78,178.10 358.61,175.00
             358.39,170.91 364.44,163.39 366.86,160.00
             369.86,155.81 376.99,146.13 379.01,142.00
             381.39,137.11 380.57,134.70 381.59,132.00
             383.21,127.76 389.08,122.49 392.96,120.54 Z" />
  <path id="mid-high-measure"
        fill="#F9D438" stroke="none" stroke-width="1"
        d="M 259.00,55.00
           C 290.75,55.02 327.50,67.66 354.00,84.69
             361.25,89.35 366.25,92.51 373.00,98.08
             374.59,99.40 378.38,102.39 379.26,104.09
             381.37,108.21 373.98,114.45 371.00,116.69
             365.96,120.47 364.13,117.66 357.00,121.52
             357.00,121.52 336.00,135.98 336.00,135.98
             333.55,137.66 328.89,141.11 326.00,141.37
             321.60,141.78 309.79,133.15 305.00,130.89
             291.26,124.39 274.21,119.70 259.00,119.00
             259.00,119.00 259.00,55.00 259.00,55.00 Z" />
  <path id="good-measure"
        fill="#4CAF50" stroke="none" stroke-width="1"
        d="M 119.00,105.00
           C 119.00,105.00 132.00,94.48 132.00,94.48
             138.33,89.76 152.01,81.10 159.00,77.31
             181.02,65.37 215.90,55.55 241.00,55.00
             241.00,55.00 241.00,119.00 241.00,119.00
             225.02,119.73 205.11,125.41 191.00,132.89
             191.00,132.89 174.00,143.21 174.00,143.21
             174.00,143.21 163.00,151.00 163.00,151.00
             163.00,151.00 134.00,122.00 134.00,122.00
             129.12,117.12 121.90,111.13 119.00,105.00 Z" />
  <path id="low-measure"
        fill="#5DCEC4" stroke="none" stroke-width="1"
        d="M 105.00,119.00
           C 110.60,121.65 114.67,126.67 119.00,131.00
             119.00,131.00 140.00,152.00 140.00,152.00
             142.41,154.41 149.69,160.68 149.66,164.00
             149.64,166.39 144.29,172.59 142.67,175.00
             136.92,183.52 131.78,192.49 127.86,202.00
             124.86,209.28 122.02,219.24 120.61,227.00
             119.91,230.89 119.85,236.57 116.58,239.26
             114.09,241.32 110.06,241.00 107.00,241.00
             107.00,241.00 68.00,241.00 68.00,241.00
             65.73,241.00 62.17,241.14 60.10,240.26
             52.94,237.23 56.06,225.04 57.08,219.00
             60.07,201.21 66.91,179.11 74.97,163.00
             78.64,155.66 88.69,139.50 93.65,133.00
             93.65,133.00 105.00,119.00 105.00,119.00 Z" />
  <path id="measure"
        fill="#000" stroke="#000" stroke-width="1"
        d="M 309.00,153.00
           C 300.30,150.25 292.44,143.01 275.00,139.45
             232.08,130.68 190.32,145.05 162.32,179.00
             153.06,190.23 145.32,205.12 141.02,219.00
             137.34,230.92 139.91,242.66 129.98,251.90
             126.93,254.74 123.99,256.53 120.00,257.78
             116.69,258.82 114.41,258.96 111.00,259.00
             111.00,259.00 65.00,259.00 65.00,259.00
             61.27,258.99 58.65,259.10 55.00,257.94
             51.17,256.72 47.96,254.57 45.04,251.83
             35.08,242.45 36.93,231.15 38.92,219.00
             44.13,187.23 52.51,163.20 69.91,136.00
             69.91,136.00 78.16,123.00 78.16,123.00
             78.16,123.00 86.72,113.00 86.72,113.00
             86.72,113.00 99.01,99.01 99.01,99.01
             116.58,81.44 143.06,63.23 166.00,53.43
             175.42,49.40 199.60,42.54 210.00,40.45
             228.98,36.63 243.89,36.78 263.00,37.00
             280.17,37.20 302.74,42.74 319.00,48.31
             319.00,48.31 330.00,51.62 330.00,51.62
             341.93,56.20 367.90,70.80 377.99,78.48
             377.99,78.48 390.00,88.87 390.00,88.87
             390.00,88.87 401.91,99.04 401.91,99.04
             401.91,99.04 424.28,126.00 424.28,126.00
             424.28,126.00 434.26,142.00 434.26,142.00
             445.97,159.74 453.99,185.29 458.65,206.00
             459.98,211.92 463.11,229.56 462.68,235.00
             461.42,250.78 450.11,258.98 435.00,259.00
             435.00,259.00 389.00,259.00 389.00,259.00
             385.59,258.96 383.31,258.82 380.00,257.78
             359.33,251.31 363.64,233.14 358.33,217.00
             358.33,217.00 347.00,191.00 347.00,191.00
             347.00,191.00 345.00,191.00 345.00,191.00
             342.33,197.87 335.87,205.04 331.37,211.00
             331.37,211.00 318.09,227.42 318.09,227.42
             318.09,227.42 304.72,244.00 304.72,244.00
             304.72,244.00 295.30,254.00 295.30,254.00
             288.05,262.46 277.13,275.86 267.00,280.67
             243.34,291.92 214.55,273.55 216.09,247.00
             216.89,233.26 223.78,225.42 233.01,216.00
             233.01,216.00 246.00,204.70 246.00,204.70
             246.00,204.70 256.00,195.29 256.00,195.29
             256.00,195.29 273.42,181.22 273.42,181.22
             281.51,174.54 300.15,158.75 309.00,155.00
             309.00,155.00 309.00,153.00 309.00,153.00 Z
           M 241.00,55.00
           C 218.44,56.04 196.93,62.10 176.00,70.19
             176.00,70.19 164.00,74.81 164.00,74.81
             164.00,74.81 147.00,84.95 147.00,84.95
             138.43,90.32 124.85,99.01 119.00,107.00
             119.00,107.00 133.96,121.04 133.96,121.04
             133.96,121.04 146.00,133.99 146.00,133.99
             146.00,133.99 162.00,150.00 162.00,150.00
             168.10,147.94 170.68,144.42 176.00,141.11
             182.94,136.79 190.56,132.71 198.00,129.31
             206.92,125.22 216.39,122.37 226.00,120.45
             226.00,120.45 237.85,118.69 237.85,118.69
             241.70,117.50 240.99,113.27 241.00,110.00
             241.00,110.00 241.00,55.00 241.00,55.00 Z
           M 381.00,105.00
           C 381.00,105.00 353.00,84.42 353.00,84.42
             327.54,68.58 289.24,55.09 259.00,55.00
             259.00,55.00 259.00,110.00 259.00,110.00
             259.00,112.30 258.62,116.41 260.60,117.98
             261.84,118.96 268.92,119.58 271.00,119.92
             278.13,121.10 285.21,122.71 292.00,125.23
             298.61,127.67 305.88,130.86 312.00,134.33
             315.15,136.12 321.52,140.69 325.00,140.82
             329.34,140.99 338.48,133.88 342.00,131.23
             342.00,131.23 359.00,119.99 359.00,119.99
             363.64,117.73 365.98,118.41 369.00,117.15
             373.30,115.35 378.91,109.13 381.00,105.00 Z
           M 107.00,119.00
           C 99.90,124.20 95.18,131.92 90.14,139.00
             75.67,159.32 65.94,181.83 59.89,206.00
             58.33,212.25 56.51,222.61 55.96,229.00
             55.65,232.68 55.29,235.79 58.28,238.57
             61.24,241.32 65.26,240.99 69.00,241.00
             69.00,241.00 106.00,241.00 106.00,241.00
             111.00,240.99 115.91,241.41 118.28,235.96
             118.28,235.96 121.42,221.00 121.42,221.00
             123.28,212.58 125.76,205.85 129.30,198.00
             132.07,191.87 138.12,180.51 141.76,175.00
             141.76,175.00 148.85,165.04 148.85,165.04
             150.14,161.19 142.72,155.75 140.28,153.00
             140.28,153.00 107.00,119.00 107.00,119.00 Z
           M 394.00,119.00
           C 390.94,121.45 385.07,126.66 383.31,130.00
             381.44,133.59 382.47,135.96 380.01,141.00
             380.01,141.00 369.52,157.00 369.52,157.00
             366.75,160.75 359.00,170.43 359.18,175.00
             359.31,178.48 363.88,184.85 365.67,188.00
             369.14,194.12 372.33,201.39 374.77,208.00
             377.16,214.46 378.77,221.22 379.92,228.00
             380.57,231.80 380.92,236.77 384.23,239.26
             386.91,241.29 390.80,240.99 394.00,241.00
             394.00,241.00 431.00,241.00 431.00,241.00
             433.38,241.00 436.79,241.13 438.98,240.26
             447.22,236.99 443.69,224.71 442.57,218.00
             439.95,202.42 430.81,173.39 422.99,160.00
             414.55,145.55 405.76,131.03 394.00,119.00 Z
           M 356.00,144.00
           C 356.00,144.00 355.00,144.00 355.00,144.00
             355.00,144.00 356.00,145.00 356.00,145.00
             356.00,145.00 356.00,144.00 356.00,144.00 Z
           M 355.00,145.00
           C 343.27,150.72 320.06,168.91 309.00,177.35
             309.00,177.35 297.00,185.68 297.00,185.68
             297.00,185.68 287.00,194.20 287.00,194.20
             274.05,204.72 260.84,215.21 249.00,227.00
             243.84,232.14 236.82,237.81 234.93,245.00
             232.24,255.21 242.42,266.98 253.00,265.63
             262.81,264.39 276.43,247.32 283.07,240.00
             283.07,240.00 306.61,212.00 306.61,212.00
             306.61,212.00 314.32,203.00 314.32,203.00
             314.32,203.00 325.00,188.00 325.00,188.00
             325.00,188.00 342.49,164.00 342.49,164.00
             346.48,158.50 352.40,151.13 355.00,145.00 Z" />
  <path id="bg"
        fill="#CCC" stroke="none" stroke-width="1"
        d="M 220.00,5.21
           C 220.00,5.21 272.00,5.21 272.00,5.21
             289.34,5.03 317.65,12.25 334.00,18.42
             334.00,18.42 352.00,26.13 352.00,26.13
             369.17,33.45 373.78,36.91 389.00,47.00
             389.00,47.00 401.00,55.02 401.00,55.02
             401.00,55.02 413.00,65.58 413.00,65.58
             413.00,65.58 423.96,75.09 423.96,75.09
             423.96,75.09 435.28,88.00 435.28,88.00
             435.28,88.00 445.76,100.00 445.76,100.00
             445.76,100.00 453.67,112.00 453.67,112.00
             468.68,134.38 478.83,155.04 486.42,181.00
             490.58,195.23 494.98,213.18 495.00,228.00
             495.00,228.00 495.00,274.00 495.00,274.00
             494.82,289.34 487.45,318.45 481.94,333.00
             481.94,333.00 473.87,352.00 473.87,352.00
             473.87,352.00 470.19,361.00 470.19,361.00
             465.64,370.17 460.08,378.56 454.34,387.00
             454.34,387.00 445.76,400.00 445.76,400.00
             445.76,400.00 435.28,412.00 435.28,412.00
             435.28,412.00 424.91,423.96 424.91,423.96
             424.91,423.96 413.00,434.42 413.00,434.42
             413.00,434.42 401.00,444.98 401.00,444.98
             401.00,444.98 377.00,461.19 377.00,461.19
             357.35,473.37 326.66,485.43 304.00,490.42
             294.06,492.62 282.14,494.98 272.00,495.00
             272.00,495.00 226.00,495.00 226.00,495.00
             206.20,494.76 177.45,485.99 159.00,478.60
             159.00,478.60 139.00,470.19 139.00,470.19
             129.83,465.64 121.44,460.08 113.00,454.34
             113.00,454.34 100.00,445.76 100.00,445.76
             100.00,445.76 88.00,435.28 88.00,435.28
             88.00,435.28 76.04,424.91 76.04,424.91
             76.04,424.91 64.72,412.00 64.72,412.00
             64.72,412.00 54.24,400.00 54.24,400.00
             54.24,400.00 46.33,388.00 46.33,388.00
             46.33,388.00 36.43,373.00 36.43,373.00
             26.51,355.67 16.31,330.35 11.15,311.00
             3.10,280.80 4.95,258.59 5.00,228.00
             5.03,207.05 13.49,178.40 21.40,159.00
             30.17,137.45 34.18,130.34 47.00,111.00
             47.00,111.00 54.24,100.00 54.24,100.00
             54.24,100.00 63.72,89.00 63.72,89.00
             63.72,89.00 76.04,75.09 76.04,75.09
             106.97,44.96 148.01,21.44 190.00,10.89
             190.00,10.89 220.00,5.21 220.00,5.21 Z
           M 347.00,191.00
           C 352.67,203.72 356.12,206.86 360.12,222.00
             363.11,233.36 362.47,246.64 373.01,254.20
             381.89,260.57 395.50,259.00 406.00,259.00
             406.00,259.00 426.00,259.00 426.00,259.00
             440.89,259.00 456.16,258.58 461.21,241.00
             462.19,237.61 462.04,233.53 462.00,230.00
             461.76,209.54 450.42,174.36 441.25,156.00
             431.39,136.27 415.97,113.31 399.96,98.17
             385.17,84.18 363.39,67.62 345.00,58.78
             264.05,19.87 168.27,33.61 103.00,96.04
             69.60,127.98 50.24,165.13 40.66,210.00
             36.94,227.44 33.41,250.43 55.00,257.53
             59.00,258.85 61.87,258.98 66.00,259.00
             66.00,259.00 110.00,259.00 110.00,259.00
             113.58,258.95 115.51,258.80 119.00,257.84
             138.72,252.44 135.53,236.17 140.04,221.00
             143.94,207.85 149.90,195.25 157.77,184.00
             181.73,149.78 225.87,131.00 267.00,137.44
             277.09,139.02 288.87,142.70 298.00,147.27
             298.00,147.27 309.00,153.00 309.00,153.00
             309.00,153.00 309.00,155.00 309.00,155.00
             302.95,158.11 296.54,163.46 291.00,167.63
             291.00,167.63 250.00,201.72 250.00,201.72
             240.85,209.77 226.29,221.45 220.52,232.00
             208.01,254.86 224.63,281.89 250.00,283.82
             264.34,284.90 274.68,275.36 284.00,266.00
             284.00,266.00 320.41,224.00 320.41,224.00
             326.49,216.69 341.01,198.75 345.00,191.00
             345.00,191.00 347.00,191.00 347.00,191.00 Z
           M 250.00,359.00
           C 249.86,352.52 247.91,342.67 246.75,336.00
             246.03,331.87 245.09,326.51 242.35,323.21
             239.84,320.18 235.82,318.88 232.00,318.53
             225.50,317.93 218.46,320.68 215.88,327.00
             213.89,331.86 213.41,346.06 212.83,352.00
             212.83,352.00 209.91,386.00 209.91,386.00
             209.91,386.00 209.01,395.00 209.01,395.00
             208.92,399.06 208.82,403.53 211.51,406.87
             215.71,412.08 226.17,412.64 230.15,406.87
             234.04,401.23 232.99,383.29 233.00,376.00
             233.01,370.75 233.56,364.02 235.00,359.00
             235.45,364.54 240.11,388.79 242.44,392.96
             245.42,398.28 253.16,399.85 257.58,395.57
             260.43,392.82 261.43,386.80 262.20,383.00
             262.20,383.00 268.00,357.00 268.00,357.00
             268.00,357.00 268.00,378.00 268.00,378.00
             268.00,378.00 269.00,392.00 269.00,392.00
             269.04,395.90 268.68,400.32 270.15,404.00
             273.90,413.43 288.78,413.91 292.20,403.00
             293.50,398.84 291.66,384.12 291.17,379.00
             291.17,379.00 288.17,345.00 288.17,345.00
             287.73,340.51 287.50,332.11 286.20,328.00
             284.25,321.86 279.14,319.09 273.00,318.53
             250.40,316.46 256.98,344.23 250.00,359.00 Z
           M 342.00,319.29
           C 332.30,320.89 323.19,323.76 316.18,331.09
             300.83,347.16 300.83,383.86 316.18,399.91
             323.58,407.64 336.47,411.75 347.00,411.99
             359.32,412.27 375.45,407.42 380.52,395.00
             381.78,391.92 382.38,388.25 381.35,385.02
             379.01,377.66 369.84,376.49 365.10,379.74
             359.81,383.37 360.22,390.80 352.00,393.35
             348.70,394.37 345.05,393.85 342.00,392.31
             330.46,386.52 329.95,374.15 330.00,363.00
             330.02,358.43 330.24,355.39 331.76,351.00
             332.79,348.01 334.24,345.43 336.33,343.04
             338.00,341.13 339.70,339.67 342.00,338.57
             346.83,336.26 352.80,336.38 356.79,340.23
             361.54,344.81 361.77,352.91 371.00,352.91
             373.17,352.91 375.12,352.47 376.96,351.26
             385.33,345.74 381.68,334.99 375.90,329.09
             367.14,320.17 353.91,318.16 342.00,319.29 Z
           M 170.00,338.00
           C 175.26,338.00 185.55,338.52 189.77,335.27
             193.86,332.12 194.02,325.09 189.77,322.01
             187.18,320.12 184.06,320.04 181.00,320.00
             181.00,320.00 137.00,320.00 137.00,320.00
             133.94,320.04 130.76,320.08 128.11,321.85
             123.58,324.89 122.58,331.59 127.23,334.99
             131.81,338.35 141.47,338.00 147.00,338.00
             147.00,338.00 147.00,393.00 147.00,393.00
             142.25,393.00 131.82,392.15 128.11,394.74
             122.41,398.70 121.24,409.80 136.00,410.00
             136.00,410.00 181.00,410.00 181.00,410.00
             186.31,409.93 191.78,409.41 192.76,403.00
             194.68,390.49 177.55,393.00 170.00,393.00
             170.00,393.00 170.00,338.00 170.00,338.00 Z" />
</svg>
