<?xml version="1.0" encoding="UTF-8" standalone="no"?>
<!DOCTYPE svg PUBLIC "-//W3C//DTD SVG 20010904//EN"
              "http://www.w3.org/TR/2001/REC-SVG-20010904/DTD/svg10.dtd">

<svg xmlns="http://www.w3.org/2000/svg"
     width="3.41333in" height="3.41333in"
     viewBox="0 0 1024 1024">
  <defs>
    <linearGradient id="mg" x1="0%" y1="25%" x2="100%" y2="75%">
      <stop offset="0%" stop-color="#001F65" />
      <stop offset="100%" stop-color="#6895FD" />
    </linearGradient>
  </defs>

  <style>
    #i-letter, #m-letter, #c-letter, #pointer-measure {
      fill: #313851;
      stroke: #313851;
    }

    #high-measure {
      fill: #F9415B;
      stroke: #F9415B;
    }

    #mid-measure {
      fill: #F9D438;
      stroke: #F9D438;
    }

    #good-measure {
      fill: #4CAF50;
      stroke: #4CAF50;
    }

    #low-measure {
      fill: #5DCEC4;
      stroke: #5DCEC4;
    }

    #measure {
      fill: #000;
      stroke: #000;
    }

    #main {
      fill: #CCC;
      stroke: #CCC;
    }

    #bg {
      fill: url(#mg);
      stroke: url(#mg);
    }
  </style>
  <path id="c-letter"
        fill="none" stroke="black" stroke-width="1"
        d="M 669.00,627.64
           C 675.62,626.62 676.68,627.09 683.00,627.64
             698.60,629.71 710.83,633.00 721.91,645.00
             727.65,651.22 732.70,661.36 730.21,670.00
             726.81,681.85 712.95,686.63 703.04,679.35
             696.36,674.45 694.69,665.12 686.99,659.85
             671.24,649.07 653.68,664.21 648.06,679.00
             645.65,685.37 645.01,690.26 645.00,697.00
             644.97,715.79 643.43,731.14 659.00,744.82
             665.62,750.63 674.46,753.86 683.00,750.39
             698.11,744.25 695.65,726.78 712.00,726.04
             714.55,725.93 717.57,726.03 720.00,726.85
             735.53,732.11 731.71,750.87 724.10,761.00
             712.98,775.79 690.72,781.20 673.00,781.00
             656.39,780.80 633.75,773.17 622.29,760.91
             603.98,741.33 600.93,708.21 605.74,683.00
             607.77,672.36 611.23,661.78 617.76,653.00
             631.03,635.16 648.24,630.56 669.00,627.64 Z" />
  <path id="m-letter"
        fill="none" stroke="black" stroke-width="1"
        d="M 514.00,691.00
           C 514.00,691.00 517.54,676.00 517.54,676.00
             517.54,676.00 520.55,657.00 520.55,657.00
             522.05,649.49 523.06,641.35 527.79,635.04
             537.37,622.24 562.26,624.01 569.96,638.01
             574.16,645.65 574.28,664.71 575.17,674.00
             575.17,674.00 578.00,700.00 578.00,700.00
             578.00,700.00 578.00,709.00 578.00,709.00
             578.00,709.00 581.09,742.00 581.09,742.00
             581.09,742.00 582.00,752.00 582.00,752.00
             582.08,759.07 582.91,766.92 578.20,772.82
             570.46,782.52 553.33,780.84 547.09,770.00
             543.04,762.98 544.09,752.86 544.00,745.00
             544.00,745.00 543.00,731.00 543.00,731.00
             543.00,731.00 543.00,704.00 543.00,704.00
             542.94,699.47 542.57,698.30 542.00,694.00
             538.10,698.22 537.95,704.55 536.79,710.00
             535.20,717.50 530.15,743.88 527.47,749.00
             521.84,759.74 507.98,760.72 500.85,750.91
             497.91,746.86 496.90,740.80 495.77,736.00
             495.77,736.00 489.88,709.00 489.88,709.00
             488.53,702.75 489.54,701.82 486.00,696.00
             481.50,714.30 483.21,733.33 483.00,752.00
             482.92,758.87 481.24,770.83 475.81,775.44
             468.53,781.64 453.46,779.56 447.85,771.90
             444.82,767.75 443.84,760.06 444.04,755.00
             444.04,755.00 445.94,742.00 445.94,742.00
             445.94,742.00 445.94,732.00 445.94,732.00
             445.94,732.00 447.91,718.00 447.91,718.00
             447.91,718.00 449.17,698.00 449.17,698.00
             449.17,698.00 450.91,682.00 450.91,682.00
             450.91,682.00 453.43,651.00 453.43,651.00
             455.42,637.17 461.68,627.21 477.00,627.00
             481.66,626.94 485.53,626.79 490.00,628.39
             502.95,633.01 504.22,645.31 506.25,657.00
             506.25,657.00 509.49,674.00 509.49,674.00
             510.71,680.07 509.36,686.30 514.00,691.00 Z" />
  <path id="i-letter"
        fill="none" stroke="black" stroke-width="1"
        d="M 341.00,658.00
           C 331.98,658.00 315.19,658.55 308.05,652.61
             301.13,646.84 302.00,637.88 309.04,632.65
             313.78,629.13 318.41,629.01 324.00,629.00
             324.00,629.00 397.00,629.00 397.00,629.00
             401.90,629.01 405.68,628.98 409.98,631.82
             417.30,636.64 418.11,646.76 411.79,652.72
             406.08,658.11 393.42,657.87 386.00,658.00
             376.18,658.19 378.00,662.19 378.00,678.00
             378.00,678.00 378.00,741.00 378.00,741.00
             378.01,744.25 377.44,748.74 381.15,750.13
             383.36,751.11 387.45,750.12 390.00,750.13
             394.92,749.89 406.98,751.15 410.93,753.88
             417.67,758.47 417.84,770.25 410.93,774.77
             406.64,777.54 398.04,777.99 393.00,778.00
             393.00,778.00 325.00,778.00 325.00,778.00
             317.30,777.91 305.27,776.08 303.41,767.00
             302.85,764.29 303.44,761.45 304.69,759.01
             309.88,748.89 322.54,751.06 332.00,751.00
             334.00,750.99 336.98,751.12 338.69,749.98
             341.45,748.14 340.99,743.91 341.00,741.00
             341.00,741.00 341.00,658.00 341.00,658.00 Z" />
  <path id="pointer-measure"
        fill="none" stroke="black" stroke-width="1"
        d="M 684.00,340.00
           C 682.63,347.19 677.66,353.23 673.37,359.00
             673.37,359.00 653.66,386.00 653.66,386.00
             653.66,386.00 637.71,408.00 637.71,408.00
             637.71,408.00 619.72,433.00 619.72,433.00
             619.72,433.00 591.08,467.00 591.08,467.00
             591.08,467.00 556.92,507.00 556.92,507.00
             543.94,521.10 524.66,545.62 503.00,535.10
             500.17,533.73 497.53,531.93 495.30,529.70
             493.23,527.64 491.08,524.58 489.70,522.00
             481.17,506.09 489.94,494.48 500.82,483.09
             500.82,483.09 517.00,467.01 517.00,467.01
             529.84,454.48 577.07,414.90 592.00,403.50
             592.00,403.50 607.00,393.12 607.00,393.12
             607.00,393.12 635.00,371.99 635.00,371.99
             635.00,371.99 667.00,349.00 667.00,349.00
             672.14,345.61 677.96,341.23 684.00,340.00 Z" />
  <path id="high-measure"
        fill="none" stroke="black" stroke-width="1"
        d="M 750.00,297.88
           C 755.22,297.92 756.78,301.26 760.00,305.00
             766.79,312.90 772.90,321.33 778.67,330.00
             785.96,340.96 799.52,363.37 804.92,375.00
             815.23,397.23 822.64,423.25 828.73,447.00
             830.39,453.48 833.95,473.79 833.63,480.00
             833.39,484.56 832.50,489.38 828.81,492.43
             825.40,495.26 822.14,494.99 818.00,495.00
             818.00,495.00 747.00,495.00 747.00,495.00
             744.57,495.00 741.25,495.13 739.00,494.26
             730.42,490.94 730.52,479.53 729.00,472.00
             727.01,462.20 724.80,452.35 721.19,443.00
             716.80,431.64 712.48,420.63 706.43,410.00
             703.48,404.81 695.78,393.51 695.25,388.00
             694.61,381.29 702.91,370.33 706.71,365.00
             706.71,365.00 730.29,329.00 730.29,329.00
             734.56,319.57 730.96,315.20 742.01,304.00
             745.02,300.96 746.11,299.68 750.00,297.88 Z" />
  <path id="mid-measure"
        fill="none" stroke="black" stroke-width="1"
        d="M 530.60,189.97
           C 535.31,188.02 541.06,189.11 546.00,189.97
             546.00,189.97 558.00,191.32 558.00,191.32
             558.00,191.32 569.00,193.42 569.00,193.42
             590.10,196.72 620.21,207.13 640.00,215.58
             653.71,221.43 673.06,230.57 685.00,239.15
             685.00,239.15 716.00,261.87 716.00,261.87
             718.55,263.78 725.54,268.13 726.18,271.09
             727.10,275.34 719.91,282.28 717.00,284.81
             708.27,292.42 701.64,290.01 693.00,294.71
             693.00,294.71 657.00,318.71 657.00,318.71
             652.29,322.06 642.85,328.79 637.00,328.79
             630.72,328.79 613.06,316.73 606.00,313.31
             585.90,303.57 565.22,296.47 543.00,293.83
             543.00,293.83 536.00,292.44 536.00,292.44
             528.60,290.82 529.01,289.13 529.00,282.00
             529.00,282.00 529.00,216.00 529.00,216.00
             529.00,210.21 527.64,194.15 530.60,189.97 Z" />
  <path id="good-measure"
        fill="none" stroke="black" stroke-width="1"
        d="M 483.00,189.44
           C 495.58,187.83 495.98,189.47 496.00,198.00
             496.00,198.00 496.00,278.00 496.00,278.00
             495.98,288.28 495.93,291.58 485.00,293.54
             485.00,293.54 477.00,294.46 477.00,294.46
             453.19,298.68 430.26,306.81 409.00,318.31
             400.10,323.12 391.22,328.09 383.00,334.01
             379.70,336.39 371.80,342.66 368.00,343.21
             363.04,343.93 355.38,334.38 352.00,331.00
             352.00,331.00 310.00,288.00 310.00,288.00
             310.00,288.00 303.00,281.17 303.00,281.17
             298.61,277.13 294.70,274.95 299.36,269.01
             305.49,261.19 332.44,243.37 342.00,237.60
             342.00,237.60 370.00,221.12 370.00,221.12
             370.00,221.12 382.00,216.40 382.00,216.40
             407.85,206.15 434.64,197.58 462.00,192.46
             462.00,192.46 483.00,189.44 483.00,189.44 Z" />
  <path id="low-measure"
        fill="none" stroke="black" stroke-width="1"
        d="M 272.00,297.91
           C 278.21,297.12 280.48,302.02 284.32,306.17
             284.32,306.17 309.00,331.00 309.00,331.00
             309.00,331.00 333.00,355.00 333.00,355.00
             336.22,358.26 341.30,363.19 341.72,368.00
             342.08,372.07 338.82,375.86 336.58,379.00
             331.32,386.38 328.21,391.10 323.72,399.00
             314.16,415.82 304.48,435.33 299.28,454.00
             299.28,454.00 294.09,477.00 294.09,477.00
             293.37,480.63 291.94,487.93 289.86,490.79
             288.57,492.55 287.03,493.67 284.96,494.35
             284.96,494.35 264.00,496.00 264.00,496.00
             264.00,496.00 219.00,496.00 219.00,496.00
             213.85,495.98 197.85,495.36 194.34,492.35
             189.17,487.91 190.28,481.83 190.83,476.00
             192.01,463.61 193.70,451.13 196.74,439.00
             206.81,398.89 221.72,365.40 244.67,331.00
             250.47,322.30 263.23,302.47 272.00,297.91 Z" />
  <path id="measure"
        fill="none" stroke="black" stroke-width="1"
        d="M 493.00,159.21
           C 493.00,159.21 510.00,159.21 510.00,159.21
             533.67,159.00 556.78,160.92 580.00,165.55
             615.36,172.61 650.27,183.89 682.00,201.31
             696.59,209.32 713.84,221.32 727.00,231.58
             766.42,262.29 791.41,289.63 816.58,333.00
             816.58,333.00 833.22,365.00 833.22,365.00
             833.22,365.00 843.95,392.00 843.95,392.00
             849.93,408.31 859.73,442.19 861.82,459.00
             863.06,468.97 863.11,478.96 863.00,489.00
             862.79,506.15 851.32,519.03 835.00,523.24
             829.63,524.63 817.63,525.99 812.00,526.00
             812.00,526.00 746.00,526.00 746.00,526.00
             733.05,525.84 719.31,521.84 710.76,511.72
             702.84,502.34 701.80,489.52 699.34,478.00
             695.71,460.98 692.61,450.79 685.16,435.00
             685.16,435.00 676.74,418.02 676.74,418.02
             675.55,415.86 673.99,412.84 671.00,413.60
             667.75,414.44 663.01,423.02 660.85,426.00
             660.85,426.00 634.87,460.00 634.87,460.00
             634.87,460.00 594.43,507.00 594.43,507.00
             584.22,518.98 571.49,535.17 560.00,545.28
             547.13,556.62 535.10,566.57 517.00,566.99
             487.72,567.65 462.10,545.98 458.00,517.00
             457.58,514.02 456.97,511.03 457.18,508.00
             459.10,481.03 473.27,468.33 492.00,450.91
             492.00,450.91 572.00,383.27 572.00,383.27
             572.00,383.27 599.00,362.34 599.00,362.34
             601.90,360.38 609.56,356.27 610.40,353.00
             611.16,350.03 608.11,348.35 605.98,347.10
             605.98,347.10 589.00,338.37 589.00,338.37
             564.73,327.11 535.76,320.69 509.00,321.00
             509.00,321.00 491.00,322.85 491.00,322.85
             433.28,329.74 376.86,364.80 348.31,416.00
             339.11,432.49 331.43,449.69 326.58,468.00
             321.48,487.25 323.88,508.45 304.00,519.79
             300.65,521.70 295.77,523.30 292.00,524.20
             285.42,525.75 284.81,525.99 278.00,526.00
             278.00,526.00 205.00,526.00 205.00,526.00
             180.64,525.96 163.24,512.96 160.93,488.00
             160.63,484.85 159.96,482.20 160.18,479.00
             161.66,458.16 164.11,449.78 168.77,430.00
             194.25,321.74 268.60,233.88 370.00,188.66
             398.77,175.84 429.96,167.40 461.00,162.32
             461.00,162.32 493.00,159.21 493.00,159.21 Z
           M 529.15,187.78
           C 525.53,190.12 526.03,191.81 526.00,196.00
             526.00,196.00 526.00,238.00 526.00,238.00
             526.00,238.00 526.00,278.00 526.00,278.00
             526.01,283.74 525.69,291.25 532.04,293.74
             535.49,295.09 539.39,294.82 543.00,295.46
             543.00,295.46 563.00,299.65 563.00,299.65
             579.10,303.48 594.24,309.82 609.00,317.25
             619.67,322.62 630.08,333.04 643.00,329.37
             650.97,327.10 674.08,309.14 683.00,303.43
             686.79,301.01 694.04,296.23 698.00,294.83
             703.55,292.88 708.47,292.81 714.00,289.52
             718.65,286.75 729.44,276.95 728.58,271.01
             727.97,266.79 722.56,264.30 719.42,261.92
             719.42,261.92 690.00,240.00 690.00,240.00
             659.33,218.17 615.61,201.85 579.00,193.12
             566.43,190.12 554.88,188.52 542.00,187.78
             536.80,187.73 534.57,186.39 529.15,187.78 Z
           M 480.00,188.14
           C 447.33,193.08 426.04,198.34 395.00,209.95
             395.00,209.95 368.00,220.37 368.00,220.37
             368.00,220.37 338.00,238.32 338.00,238.32
             327.16,245.15 306.24,258.77 298.34,268.09
             291.06,276.67 302.38,282.45 308.00,288.00
             308.00,288.00 350.00,331.00 350.00,331.00
             353.61,334.61 361.95,344.63 367.00,344.64
             370.34,344.65 375.31,341.44 378.00,339.56
             378.00,339.56 396.00,327.23 396.00,327.23
             421.07,312.58 444.26,302.09 473.00,296.92
             473.00,296.92 481.00,295.30 481.00,295.30
             486.07,294.55 492.89,295.12 495.83,289.89
             497.21,287.43 497.00,283.77 497.00,281.00
             497.00,281.00 497.00,211.00 497.00,211.00
             497.00,211.00 497.00,195.00 497.00,195.00
             496.96,193.05 497.10,190.37 495.40,189.02
             493.73,187.70 489.14,188.00 487.00,188.14
             487.00,188.14 480.00,188.14 480.00,188.14 Z
           M 272.00,295.66
           C 262.90,300.19 249.88,320.18 243.81,329.00
             219.78,363.96 204.47,399.89 194.37,441.00
             194.37,441.00 188.72,475.00 188.72,475.00
             187.82,482.47 187.07,489.26 194.04,494.35
             198.44,497.56 208.55,497.99 214.00,498.00
             214.00,498.00 270.00,498.00 270.00,498.00
             276.34,497.99 286.08,497.73 290.61,492.79
             294.14,488.92 294.29,483.85 295.28,479.00
             295.28,479.00 300.15,458.00 300.15,458.00
             305.55,437.52 313.91,420.43 324.14,402.00
             329.39,392.53 331.86,388.81 338.14,380.00
             340.75,376.33 344.39,371.81 343.57,367.00
             342.68,361.86 336.58,356.58 333.00,353.00
             333.00,353.00 308.32,328.18 308.32,328.18
             308.32,328.18 285.00,304.00 285.00,304.00
             281.06,300.06 277.93,295.27 272.00,295.66 Z
           M 750.00,295.64
           C 743.42,298.65 735.68,306.29 732.80,313.00
             732.80,313.00 727.87,329.00 727.87,329.00
             723.32,338.05 710.17,356.20 703.86,365.00
             698.15,372.97 692.92,379.68 694.13,390.00
             694.93,396.87 701.34,404.90 704.69,411.00
             709.54,419.83 715.56,433.51 719.12,443.00
             723.48,454.64 725.46,466.95 728.26,479.00
             729.74,485.37 729.10,489.96 735.04,494.57
             739.23,497.82 746.85,497.99 752.00,498.00
             752.00,498.00 812.00,498.00 812.00,498.00
             816.63,497.99 823.87,497.66 828.00,495.55
             841.16,488.81 834.67,463.60 832.12,452.00
             826.83,427.95 816.62,394.03 806.06,372.00
             806.06,372.00 783.81,334.00 783.81,334.00
             777.21,323.38 769.74,313.10 761.50,303.72
             757.77,299.47 756.33,295.27 750.00,295.64 Z
           M 683.00,341.00
           C 677.01,342.75 669.32,348.10 664.00,351.67
             664.00,351.67 629.00,377.35 629.00,377.35
             629.00,377.35 590.00,405.89 590.00,405.89
             590.00,405.89 574.00,419.39 574.00,419.39
             574.00,419.39 528.00,457.85 528.00,457.85
             519.94,464.94 504.73,478.80 498.00,486.58
             492.44,493.01 487.64,499.13 487.09,508.00
             486.02,525.45 502.72,540.46 520.00,536.47
             527.21,534.81 537.65,526.08 543.00,520.96
             555.76,508.76 572.81,487.94 584.41,474.00
             584.41,474.00 617.34,435.00 617.34,435.00
             617.34,435.00 646.37,395.00 646.37,395.00
             646.37,395.00 670.37,362.00 670.37,362.00
             674.57,356.35 681.63,347.71 683.00,341.00 Z" />
  <path id="main"
        fill="none" stroke="black" stroke-width="1"
        d="M 462.00,104.15
           C 462.00,104.15 493.00,104.15 493.00,104.15
             493.00,104.15 548.00,104.15 548.00,104.15
             548.00,104.15 567.00,105.72 567.00,105.72
             601.57,109.86 635.02,118.92 667.00,132.72
             667.00,132.72 708.00,151.31 708.00,151.31
             708.00,151.31 738.00,170.00 738.00,170.00
             738.00,170.00 764.00,187.52 764.00,187.52
             764.00,187.52 778.00,199.72 778.00,199.72
             778.00,199.72 799.00,218.04 799.00,218.04
             799.00,218.04 837.33,261.00 837.33,261.00
             837.33,261.00 852.67,284.00 852.67,284.00
             880.60,325.90 898.13,365.24 910.47,414.00
             914.37,429.38 919.98,454.45 920.00,470.00
             920.00,470.00 920.00,557.00 920.00,557.00
             919.86,568.75 913.90,596.89 910.87,609.00
             903.98,636.60 899.66,648.09 888.42,674.00
             888.42,674.00 880.69,693.00 880.69,693.00
             874.45,706.83 866.07,720.38 857.67,733.00
             857.67,733.00 837.49,763.00 837.49,763.00
             837.49,763.00 825.28,777.00 825.28,777.00
             825.28,777.00 804.58,800.83 804.58,800.83
             804.58,800.83 762.00,838.10 762.00,838.10
             762.00,838.10 742.00,851.67 742.00,851.67
             742.00,851.67 714.00,869.57 714.00,869.57
             683.60,887.00 643.99,901.87 610.00,910.47
             595.43,914.16 567.53,919.98 553.00,920.00
             553.00,920.00 467.00,920.00 467.00,920.00
             457.69,919.89 436.59,915.83 427.00,913.65
             402.52,908.08 378.14,900.14 355.00,890.42
             355.00,890.42 325.00,877.69 325.00,877.69
             309.89,869.95 275.34,847.97 262.00,837.76
             262.00,837.76 238.00,817.15 238.00,817.15
             238.00,817.15 222.00,802.99 222.00,802.99
             222.00,802.99 206.85,786.00 206.85,786.00
             206.85,786.00 186.24,762.00 186.24,762.00
             186.24,762.00 173.33,743.00 173.33,743.00
             173.33,743.00 155.87,716.00 155.87,716.00
             136.47,682.27 117.10,631.24 109.45,593.00
             101.91,555.31 103.94,510.69 104.00,472.00
             104.02,460.23 108.00,437.79 110.77,426.00
             116.80,400.33 123.35,379.37 133.58,355.00
             147.56,321.67 153.14,312.12 173.00,282.00
             173.00,282.00 186.24,262.00 186.24,262.00
             186.24,262.00 206.84,238.00 206.84,238.00
             206.84,238.00 230.00,213.09 230.00,213.09
             272.28,173.70 323.88,143.83 378.00,124.05
             405.09,114.16 433.75,109.64 462.00,104.15 Z
           M 485.00,158.10
           C 485.00,158.10 458.00,161.32 458.00,161.32
             440.14,164.24 422.34,168.54 405.00,173.77
             352.94,189.45 299.32,222.69 261.00,261.00
             261.00,261.00 244.72,279.00 244.72,279.00
             235.52,289.49 226.53,300.31 218.86,312.00
             193.38,350.82 179.93,381.19 168.12,426.00
             165.03,437.70 159.05,463.59 159.00,475.00
             159.00,475.00 159.00,485.00 159.00,485.00
             159.29,509.75 177.47,526.96 202.00,527.00
             202.00,527.00 281.00,527.00 281.00,527.00
             287.87,526.99 288.41,526.79 295.00,524.86
             298.90,523.71 302.51,522.35 306.00,520.24
             324.81,508.85 322.92,488.62 327.59,470.00
             331.84,453.06 339.00,436.32 347.31,421.00
             371.46,376.44 411.99,345.69 460.00,330.98
             474.18,326.63 483.41,325.23 498.00,323.83
             498.00,323.83 507.00,323.00 507.00,323.00
             535.00,322.68 561.51,327.10 587.00,339.25
             587.00,339.25 603.99,347.80 603.99,347.80
             605.70,348.77 608.77,350.44 608.38,352.83
             608.01,355.10 601.03,358.97 599.00,360.34
             599.00,360.34 573.00,380.27 573.00,380.27
             573.00,380.27 509.00,433.73 509.00,433.73
             498.27,442.91 481.23,457.56 472.44,468.00
             465.74,475.95 459.64,485.78 457.24,496.00
             450.71,523.71 465.86,552.53 492.00,563.54
             502.98,568.16 507.41,568.13 519.00,568.00
             536.22,567.79 550.97,556.14 563.00,544.91
             563.00,544.91 598.28,505.00 598.28,505.00
             598.28,505.00 639.34,457.00 639.34,457.00
             639.34,457.00 662.71,426.00 662.71,426.00
             664.15,423.98 669.03,415.98 671.15,415.62
             674.76,415.02 678.40,425.25 679.76,428.00
             687.48,443.67 693.41,455.44 696.69,473.00
             699.90,490.17 701.47,508.57 717.00,519.48
             731.47,529.65 755.91,527.00 773.00,527.00
             773.00,527.00 805.00,527.00 805.00,527.00
             829.14,527.00 854.17,526.72 863.04,499.00
             865.61,490.97 865.09,483.33 865.00,475.00
             864.90,466.87 862.62,456.08 861.09,448.00
             856.82,425.44 850.10,403.40 841.81,382.00
             825.50,339.91 800.23,298.69 768.96,266.00
             760.02,256.65 749.93,248.20 740.00,239.92
             688.75,197.21 632.08,171.03 566.00,161.30
             556.01,159.83 542.97,158.02 533.00,158.10
             533.00,158.10 490.00,158.10 490.00,158.10
             490.00,158.10 485.00,158.10 485.00,158.10 Z
           M 512.00,691.00
           C 512.00,691.00 505.66,651.00 505.66,651.00
             504.31,644.63 503.32,638.22 498.66,633.18
             488.92,622.65 467.25,624.02 458.39,635.02
             454.01,640.45 453.12,648.23 452.29,655.00
             452.29,655.00 450.91,676.00 450.91,676.00
             450.91,676.00 448.96,692.00 448.96,692.00
             448.96,692.00 448.96,701.00 448.96,701.00
             448.96,701.00 447.17,714.00 447.17,714.00
             447.17,714.00 445.83,735.00 445.83,735.00
             445.83,735.00 444.00,752.00 444.00,752.00
             443.93,758.38 443.19,765.40 446.82,771.00
             453.02,780.57 469.45,783.36 477.45,774.66
             483.44,768.14 482.53,758.12 483.09,750.00
             483.09,750.00 484.00,738.00 484.00,738.00
             484.02,727.50 482.26,707.00 487.00,698.00
             487.00,698.00 495.13,736.00 495.13,736.00
             496.40,741.21 497.93,748.65 501.55,752.67
             508.81,760.72 522.19,759.76 527.59,750.00
             530.68,744.39 532.03,734.37 533.42,728.00
             533.42,728.00 540.00,696.00 540.00,696.00
             540.00,696.00 542.00,696.00 542.00,696.00
             542.00,696.00 542.00,726.00 542.00,726.00
             542.00,726.00 543.92,746.00 543.92,746.00
             543.92,746.00 543.92,759.00 543.92,759.00
             544.26,780.34 566.69,785.77 577.79,773.90
             582.50,768.86 583.13,762.57 582.99,756.00
             582.99,756.00 580.00,726.00 580.00,726.00
             580.00,726.00 580.00,717.00 580.00,717.00
             580.00,717.00 577.09,690.00 577.09,690.00
             577.09,690.00 575.09,668.00 575.09,668.00
             574.53,659.80 574.63,648.84 571.89,641.00
             568.17,630.34 558.47,626.45 548.00,626.04
             544.95,625.92 541.96,626.12 539.00,626.93
             528.54,629.79 524.14,638.12 521.80,648.00
             519.01,659.78 517.51,682.08 512.00,691.00 Z
           M 665.00,627.30
           C 646.38,630.76 629.61,636.07 617.76,652.00
             602.66,672.31 600.20,706.03 606.13,730.00
             608.09,737.92 612.58,749.58 617.53,756.00
             629.56,771.62 650.41,780.77 670.00,781.00
             689.76,781.23 710.63,778.50 723.98,761.96
             732.97,750.82 735.76,731.36 719.00,725.91
             716.69,725.17 714.42,724.91 712.00,725.11
             694.67,726.52 695.62,749.97 677.00,751.36
             665.51,752.22 654.04,741.90 649.68,732.00
             643.15,717.17 642.74,688.22 650.88,674.00
             656.10,664.87 665.90,656.40 677.00,657.09
             698.25,658.42 692.78,684.11 715.00,682.96
             725.97,682.39 731.38,674.39 730.96,664.00
             730.67,656.75 727.59,650.39 722.82,645.00
             708.87,629.27 685.01,625.31 665.00,627.30 Z
           M 379.00,658.00
           C 388.16,658.00 404.63,659.39 411.89,653.50
             418.97,647.77 418.35,636.89 410.96,631.70
             406.94,628.88 402.66,629.01 398.00,629.00
             398.00,629.00 322.00,629.00 322.00,629.00
             319.00,629.00 315.88,628.88 313.00,629.85
             305.51,632.39 300.94,640.36 303.89,648.00
             307.33,656.90 319.84,657.99 328.00,658.00
             331.01,658.00 337.22,657.42 339.40,659.60
             341.32,661.52 340.99,665.46 341.00,668.00
             341.00,668.00 341.00,730.00 341.00,730.00
             341.00,734.17 342.20,746.63 338.69,748.98
             336.84,750.21 333.19,750.00 331.00,750.00
             321.78,750.02 308.68,748.64 304.23,759.01
             298.28,772.85 311.94,777.98 323.00,778.00
             323.00,778.00 398.00,778.00 398.00,778.00
             402.64,777.99 406.96,778.12 410.96,775.30
             418.08,770.28 419.21,759.11 411.90,753.70
             404.83,748.47 387.86,750.00 379.00,750.00
             379.00,750.00 379.00,658.00 379.00,658.00 Z" />
  <path id="bg"
        fill="none" stroke="black" stroke-width="1"
        d="M 112.00,0.07
           C 112.00,0.07 145.00,0.07 145.00,0.07
             145.00,0.07 204.00,0.07 204.00,0.07
             204.00,0.07 386.00,0.07 386.00,0.07
             386.00,0.07 733.00,0.07 733.00,0.07
             733.00,0.07 906.00,0.07 906.00,0.07
             915.09,0.11 928.34,3.08 937.00,6.00
             970.62,17.35 995.45,39.33 1011.25,71.00
             1018.53,85.60 1023.97,103.58 1024.00,120.00
             1024.00,120.00 1024.00,626.00 1024.00,626.00
             1024.00,626.00 1024.00,812.00 1024.00,812.00
             1024.00,812.00 1024.00,906.00 1024.00,906.00
             1023.89,915.09 1020.92,928.34 1018.00,937.00
             1006.65,970.62 984.67,995.45 953.00,1011.25
             938.40,1018.53 920.42,1023.97 904.00,1024.00
             904.00,1024.00 398.00,1024.00 398.00,1024.00
             398.00,1024.00 212.00,1024.00 212.00,1024.00
             212.00,1024.00 118.00,1024.00 118.00,1024.00
             108.91,1023.89 95.66,1020.92 87.00,1018.00
             53.38,1006.65 28.55,984.67 12.75,953.00
             5.47,938.40 0.03,920.42 0.00,904.00
             0.00,904.00 0.00,221.00 0.00,221.00
             0.00,221.00 0.00,119.00 0.00,119.00
             0.15,87.53 18.45,53.90 41.01,32.93
             50.49,24.12 58.52,18.99 70.00,13.25
             85.45,5.52 95.09,2.98 112.00,0.07 Z
           M 459.00,105.10
           C 459.00,105.10 403.00,116.42 403.00,116.42
             338.48,134.36 273.12,171.47 225.00,218.04
             225.00,218.04 208.84,236.00 208.84,236.00
             208.84,236.00 186.50,262.00 186.50,262.00
             186.50,262.00 169.95,287.00 169.95,287.00
             151.54,316.00 144.23,328.93 131.40,361.00
             119.15,391.62 109.75,423.23 105.72,456.00
             105.72,456.00 104.00,475.00 104.00,475.00
             104.00,475.00 104.00,540.00 104.00,540.00
             104.00,540.00 104.91,552.00 104.91,552.00
             106.75,578.75 110.05,598.15 117.43,624.00
             124.91,650.22 141.05,689.35 154.42,713.00
             154.42,713.00 173.67,743.00 173.67,743.00
             173.67,743.00 186.50,762.00 186.50,762.00
             186.50,762.00 203.72,782.00 203.72,782.00
             203.72,782.00 223.04,803.91 223.04,803.91
             223.04,803.91 262.00,837.50 262.00,837.50
             271.78,844.97 309.06,869.10 320.00,874.74
             320.00,874.74 364.00,893.81 364.00,893.81
             392.55,904.87 423.60,914.32 454.00,918.28
             454.00,918.28 470.00,920.00 470.00,920.00
             470.00,920.00 550.00,920.00 550.00,920.00
             563.56,919.98 582.54,916.16 596.00,913.45
             635.00,905.59 682.63,887.53 717.00,867.58
             717.00,867.58 764.00,836.33 764.00,836.33
             764.00,836.33 787.00,816.28 787.00,816.28
             787.00,816.28 802.99,802.00 802.99,802.00
             802.99,802.00 823.28,779.00 823.28,779.00
             823.28,779.00 837.10,763.00 837.10,763.00
             837.10,763.00 854.00,738.00 854.00,738.00
             862.02,725.98 870.14,713.88 876.74,701.00
             876.74,701.00 885.28,681.00 885.28,681.00
             898.69,649.84 905.97,631.57 913.21,598.00
             915.91,585.50 919.98,564.45 920.00,552.00
             920.00,552.00 920.00,473.00 920.00,473.00
             919.97,452.84 913.08,424.68 907.88,405.00
             895.72,358.92 877.13,321.63 851.00,282.00
             851.00,282.00 837.76,262.00 837.76,262.00
             837.76,262.00 816.15,237.00 816.15,237.00
             816.15,237.00 800.99,220.04 800.99,220.04
             800.99,220.04 787.00,207.85 787.00,207.85
             787.00,207.85 765.00,188.67 765.00,188.67
             765.00,188.67 743.00,173.67 743.00,173.67
             743.00,173.67 712.00,153.86 712.00,153.86
             687.19,139.94 646.59,123.39 619.00,116.12
             600.72,111.30 573.65,105.03 555.00,105.10
             555.00,105.10 505.00,105.10 505.00,105.10
             505.00,105.10 459.00,105.10 459.00,105.10 Z" />
</svg>
